<svg width="25" height="22" viewBox="0 0 25 22" fill="none" xmlns="http://www.w3.org/2000/svg">
<path d="M25 10.8704C25 11.8642 24.2507 12.667 23.261 12.667H6.1114L12.005 18.5848C12.704 19.2867 12.704 20.4236 12.005 21.1254C11.6527 21.4763 11.1942 21.6504 10.7357 21.6504C10.2772 21.6504 9.81978 21.4749 9.47086 21.124L0.524217 12.1407C-0.174739 11.4388 -0.174739 10.3019 0.524217 9.60006L9.47086 0.616701C10.1698 -0.0851243 11.3021 -0.0851243 12.0011 0.616701C12.7 1.31853 12.7 2.45548 12.0011 3.15731L6.1114 9.07369H23.261C24.2507 9.07369 25 9.87658 25 10.8704Z" fill="black"/>
</svg>
