<svg width="30" height="30" viewBox="0 0 30 30" fill="none" xmlns="http://www.w3.org/2000/svg">
<path d="M22.208 22.1652C23.1214 23.3018 23.6249 24.7126 23.6409 26.1671L23.6412 26.2412C23.6462 27.2446 22.9914 28.1312 22.0303 28.4299L22.03 28.43C17.4521 29.856 12.5438 29.856 7.96579 28.43L7.96518 28.4298C7.00466 28.1319 6.34955 27.2448 6.35452 26.2412H6.35453V26.2387C6.35453 24.7584 6.8594 23.3204 7.78759 22.165C8.48331 21.3044 9.43444 20.6898 10.497 20.417C10.4971 20.417 10.4972 20.4169 10.4973 20.4169L10.9009 20.3139C13.4185 21.8506 16.5768 21.8506 19.0946 20.3139L19.4982 20.4169C19.4983 20.4169 19.4984 20.417 19.4985 20.417C20.5613 20.6898 21.5126 21.3049 22.208 22.1652Z" stroke="black"/>
<path d="M22.2706 3.47906L22.2706 3.47905C15.9063 -0.536947 7.49181 1.36414 3.47525 7.7292L3.47518 7.72931C0.672438 12.1734 0.672442 17.8308 3.47517 22.2751C3.60075 22.4749 3.54519 22.7435 3.33619 22.88C3.13487 23.0044 2.8672 22.9471 2.73225 22.739C-0.244584 18.0087 -0.243982 11.9918 2.73393 7.2635C7.01138 0.490403 15.9644 -1.53327 22.7369 2.73857C29.5085 7.01554 31.5326 15.9664 27.2634 22.7387C27.1282 22.9469 26.8602 23.0041 26.6592 22.88C26.4505 22.7436 26.3948 22.4752 26.5202 22.2751C30.5361 15.91 28.6351 7.49566 22.2706 3.47906Z" stroke="black"/>
<path d="M24.4613 18.6004L24.4601 18.6037C24.3755 18.8308 24.1238 18.9415 23.9044 18.8558L23.9044 18.8557L23.8961 18.8526C23.6703 18.769 23.5587 18.5174 23.6446 18.2968L23.6462 18.2925C25.4564 13.5165 23.0585 8.17178 18.2882 6.35495L18.2875 6.35467C13.5114 4.54448 8.16674 6.943 6.34991 11.7121L6.34926 11.7138C5.55034 13.8343 5.55034 16.1713 6.34926 18.2918L6.34923 18.2918L6.35126 18.297C6.43714 18.5175 6.32558 18.7692 6.09968 18.8528L6.09965 18.8528L6.0914 18.856C5.8719 18.9418 5.62013 18.8308 5.53584 18.6042L5.53586 18.6042L5.53454 18.6007C4.65319 16.2834 4.65322 13.7225 5.53451 11.4066L5.53453 11.4066C7.52403 6.17655 13.3724 3.55057 18.5951 5.54L18.5953 5.54007C23.8241 7.52927 26.4502 13.3762 24.4613 18.6004Z" stroke="black"/>
<path d="M14.9977 9.25293C17.4028 9.25293 19.3538 11.2039 19.3538 13.609C19.3538 16.0213 17.4024 17.9718 14.9977 17.9718C12.593 17.9718 10.6416 16.0213 10.6416 13.609C10.6416 11.2039 12.5929 9.25293 14.9977 9.25293Z" stroke="black"/>
</svg>
