<svg width="26" height="30" viewBox="0 0 26 30" fill="none" xmlns="http://www.w3.org/2000/svg">
<path fill-rule="evenodd" clip-rule="evenodd" d="M12.5674 7.50195C11.5786 7.50195 10.612 7.79517 9.78983 8.34453C8.96766 8.89389 8.32685 9.67472 7.94844 10.5883C7.57004 11.5018 7.47103 12.5071 7.66394 13.4769C7.85685 14.4467 8.33301 15.3376 9.03222 16.0368C9.73142 16.736 10.6223 17.2121 11.5921 17.405C12.5619 17.5979 13.5672 17.4989 14.4807 17.1205C15.3943 16.7421 16.1751 16.1013 16.7244 15.2791C17.2738 14.457 17.567 13.4903 17.567 12.5015C17.567 11.1756 17.0403 9.90389 16.1027 8.96629C15.1651 8.02869 13.8934 7.50195 12.5674 7.50195ZM11.1786 14.58C11.5897 14.8547 12.073 15.0013 12.5674 15.0013C13.2304 15.0013 13.8663 14.7379 14.3351 14.2691C14.8039 13.8003 15.0672 13.1645 15.0672 12.5015C15.0672 12.0071 14.9206 11.5238 14.6459 11.1127C14.3713 10.7016 13.9809 10.3812 13.5241 10.192C13.0673 10.0028 12.5647 9.95332 12.0798 10.0498C11.5949 10.1462 11.1494 10.3843 10.7998 10.7339C10.4502 11.0835 10.2121 11.5289 10.1157 12.0138C10.0192 12.4988 10.0687 13.0014 10.2579 13.4581C10.4471 13.9149 10.7676 14.3053 11.1786 14.58Z" fill="black"/>
<path d="M12.5677 29.9999C11.5152 30.0053 10.4767 29.7585 9.53926 29.28C8.60179 28.8016 7.79258 28.1056 7.17939 27.2502C2.41604 20.6795 0 15.7399 0 12.5677C0 9.23451 1.32409 6.03788 3.68099 3.68098C6.03788 1.32409 9.23452 0 12.5677 0C15.9008 0 19.0975 1.32409 21.4544 3.68098C23.8113 6.03788 25.1353 9.23451 25.1353 12.5677C25.1353 15.7399 22.7193 20.6795 17.956 27.2502C17.3428 28.1056 16.5336 28.8016 15.5961 29.28C14.6586 29.7585 13.6202 30.0053 12.5677 29.9999V29.9999ZM12.5677 2.72851C9.95842 2.73149 7.45688 3.76933 5.61186 5.61436C3.76684 7.45938 2.72899 9.96091 2.72602 12.5702C2.72602 15.0824 5.09206 19.7283 9.3867 25.6515C9.75128 26.1537 10.2296 26.5624 10.7825 26.8443C11.3354 27.1261 11.9471 27.273 12.5677 27.273C13.1882 27.273 13.8 27.1261 14.3529 26.8443C14.9058 26.5624 15.3841 26.1537 15.7487 25.6515C20.0433 19.7283 22.4093 15.0824 22.4093 12.5702C22.4064 9.96091 21.3685 7.45938 19.5235 5.61436C17.6785 3.76933 15.1769 2.73149 12.5677 2.72851V2.72851Z" fill="black"/>
</svg>
